<svg width="64" height="79" viewBox="0 0 64 79" fill="none" xmlns="http://www.w3.org/2000/svg">
<g opacity="0.2" clip-path="url(#clip0_548_3119)">
<path d="M61.61 78.04C62.825 78.04 63.81 77.055 63.81 75.84C63.81 74.625 62.825 73.64 61.61 73.64C60.395 73.64 59.41 74.625 59.41 75.84C59.41 77.055 60.395 78.04 61.61 78.04Z" fill="#2FC3C7"/>
<path d="M61.61 63.31C62.825 63.31 63.81 62.3251 63.81 61.11C63.81 59.895 62.825 58.91 61.61 58.91C60.395 58.91 59.41 59.895 59.41 61.11C59.41 62.3251 60.395 63.31 61.61 63.31Z" fill="#2FC3C7"/>
<path d="M61.61 48.5801C62.825 48.5801 63.81 47.5951 63.81 46.3801C63.81 45.165 62.825 44.1801 61.61 44.1801C60.395 44.1801 59.41 45.165 59.41 46.3801C59.41 47.5951 60.395 48.5801 61.61 48.5801Z" fill="#2FC3C7"/>
<path d="M59.41 31.66C59.41 32.88 60.4 33.86 61.61 33.86C62.82 33.86 63.81 32.87 63.81 31.66C63.81 30.45 62.82 29.46 61.61 29.46C60.4 29.46 59.41 30.45 59.41 31.66Z" fill="#2FC3C7"/>
<path d="M59.41 16.93C59.41 18.15 60.4 19.13 61.61 19.13C62.82 19.13 63.81 18.14 63.81 16.93C63.81 15.72 62.82 14.73 61.61 14.73C60.4 14.73 59.41 15.72 59.41 16.93Z" fill="#2FC3C7"/>
<path d="M61.61 4.4C62.825 4.4 63.81 3.41503 63.81 2.2C63.81 0.984974 62.825 0 61.61 0C60.395 0 59.41 0.984974 59.41 2.2C59.41 3.41503 60.395 4.4 61.61 4.4Z" fill="#2FC3C7"/>
<path d="M49.73 78.04C50.945 78.04 51.93 77.055 51.93 75.84C51.93 74.625 50.945 73.64 49.73 73.64C48.515 73.64 47.53 74.625 47.53 75.84C47.53 77.055 48.515 78.04 49.73 78.04Z" fill="#2FC3C7"/>
<path d="M49.73 63.31C50.945 63.31 51.93 62.3251 51.93 61.11C51.93 59.895 50.945 58.91 49.73 58.91C48.515 58.91 47.53 59.895 47.53 61.11C47.53 62.3251 48.515 63.31 49.73 63.31Z" fill="#2FC3C7"/>
<path d="M49.73 48.5801C50.945 48.5801 51.93 47.5951 51.93 46.3801C51.93 45.165 50.945 44.1801 49.73 44.1801C48.515 44.1801 47.53 45.165 47.53 46.3801C47.53 47.5951 48.515 48.5801 49.73 48.5801Z" fill="#2FC3C7"/>
<path d="M47.53 31.66C47.53 32.88 48.52 33.86 49.73 33.86C50.94 33.86 51.93 32.87 51.93 31.66C51.93 30.45 50.94 29.46 49.73 29.46C48.52 29.46 47.53 30.45 47.53 31.66Z" fill="#2FC3C7"/>
<path d="M47.53 16.93C47.53 18.15 48.52 19.13 49.73 19.13C50.94 19.13 51.93 18.14 51.93 16.93C51.93 15.72 50.94 14.73 49.73 14.73C48.52 14.73 47.53 15.72 47.53 16.93Z" fill="#2FC3C7"/>
<path d="M49.73 4.4C50.945 4.4 51.93 3.41503 51.93 2.2C51.93 0.984974 50.945 0 49.73 0C48.515 0 47.53 0.984974 47.53 2.2C47.53 3.41503 48.515 4.4 49.73 4.4Z" fill="#2FC3C7"/>
<path d="M35.64 75.84C35.64 77.06 36.63 78.04 37.84 78.04C39.05 78.04 40.04 77.05 40.04 75.84C40.04 74.63 39.05 73.64 37.84 73.64C36.63 73.64 35.64 74.63 35.64 75.84Z" fill="#2FC3C7"/>
<path d="M35.64 61.11C35.64 62.33 36.63 63.31 37.84 63.31C39.05 63.31 40.04 62.32 40.04 61.11C40.04 59.9 39.05 58.91 37.84 58.91C36.63 58.91 35.64 59.9 35.64 61.11Z" fill="#2FC3C7"/>
<path d="M35.64 46.3801C35.64 47.6001 36.63 48.5801 37.84 48.5801C39.05 48.5801 40.04 47.5901 40.04 46.3801C40.04 45.1701 39.05 44.1801 37.84 44.1801C36.63 44.1801 35.64 45.1701 35.64 46.3801Z" fill="#2FC3C7"/>
<path d="M35.64 31.66C35.64 32.88 36.63 33.86 37.84 33.86C39.05 33.86 40.04 32.87 40.04 31.66C40.04 30.45 39.05 29.46 37.84 29.46C36.63 29.46 35.64 30.45 35.64 31.66Z" fill="#2FC3C7"/>
<path d="M35.64 16.93C35.64 18.15 36.63 19.13 37.84 19.13C39.05 19.13 40.04 18.14 40.04 16.93C40.04 15.72 39.05 14.73 37.84 14.73C36.63 14.73 35.64 15.72 35.64 16.93Z" fill="#2FC3C7"/>
<path d="M35.64 2.2C35.64 3.42 36.63 4.4 37.84 4.4C39.05 4.4 40.04 3.41 40.04 2.2C40.04 0.99 39.05 0 37.84 0C36.63 0 35.64 0.99 35.64 2.2Z" fill="#2FC3C7"/>
<path d="M25.97 78.04C27.185 78.04 28.17 77.055 28.17 75.84C28.17 74.625 27.185 73.64 25.97 73.64C24.755 73.64 23.77 74.625 23.77 75.84C23.77 77.055 24.755 78.04 25.97 78.04Z" fill="#2FC3C7"/>
<path d="M25.97 63.31C27.185 63.31 28.17 62.3251 28.17 61.11C28.17 59.895 27.185 58.91 25.97 58.91C24.755 58.91 23.77 59.895 23.77 61.11C23.77 62.3251 24.755 63.31 25.97 63.31Z" fill="#2FC3C7"/>
<path d="M25.97 48.5801C27.185 48.5801 28.17 47.5951 28.17 46.3801C28.17 45.165 27.185 44.1801 25.97 44.1801C24.755 44.1801 23.77 45.165 23.77 46.3801C23.77 47.5951 24.755 48.5801 25.97 48.5801Z" fill="#2FC3C7"/>
<path d="M23.76 31.66C23.76 32.88 24.75 33.86 25.96 33.86C27.17 33.86 28.16 32.87 28.16 31.66C28.16 30.45 27.17 29.46 25.96 29.46C24.75 29.46 23.76 30.45 23.76 31.66Z" fill="#2FC3C7"/>
<path d="M23.76 16.93C23.76 18.15 24.75 19.13 25.96 19.13C27.17 19.13 28.16 18.14 28.16 16.93C28.16 15.72 27.17 14.73 25.96 14.73C24.75 14.73 23.76 15.72 23.76 16.93Z" fill="#2FC3C7"/>
<path d="M25.97 4.4C27.185 4.4 28.17 3.41503 28.17 2.2C28.17 0.984974 27.185 0 25.97 0C24.755 0 23.77 0.984974 23.77 2.2C23.77 3.41503 24.755 4.4 25.97 4.4Z" fill="#2FC3C7"/>
<path d="M14.08 78.04C15.295 78.04 16.28 77.055 16.28 75.84C16.28 74.625 15.295 73.64 14.08 73.64C12.865 73.64 11.88 74.625 11.88 75.84C11.88 77.055 12.865 78.04 14.08 78.04Z" fill="#2FC3C7"/>
<path d="M14.08 63.31C15.295 63.31 16.28 62.3251 16.28 61.11C16.28 59.895 15.295 58.91 14.08 58.91C12.865 58.91 11.88 59.895 11.88 61.11C11.88 62.3251 12.865 63.31 14.08 63.31Z" fill="#2FC3C7"/>
<path d="M14.08 48.5801C15.295 48.5801 16.28 47.5951 16.28 46.3801C16.28 45.165 15.295 44.1801 14.08 44.1801C12.865 44.1801 11.88 45.165 11.88 46.3801C11.88 47.5951 12.865 48.5801 14.08 48.5801Z" fill="#2FC3C7"/>
<path d="M11.88 31.66C11.88 32.88 12.87 33.86 14.08 33.86C15.29 33.86 16.28 32.87 16.28 31.66C16.28 30.45 15.29 29.46 14.08 29.46C12.87 29.46 11.88 30.45 11.88 31.66Z" fill="#2FC3C7"/>
<path d="M11.88 16.93C11.88 18.15 12.87 19.13 14.08 19.13C15.29 19.13 16.28 18.14 16.28 16.93C16.28 15.72 15.29 14.73 14.08 14.73C12.87 14.73 11.88 15.72 11.88 16.93Z" fill="#2FC3C7"/>
<path d="M14.08 4.4C15.295 4.4 16.28 3.41503 16.28 2.2C16.28 0.984974 15.295 0 14.08 0C12.865 0 11.88 0.984974 11.88 2.2C11.88 3.41503 12.865 4.4 14.08 4.4Z" fill="#2FC3C7"/>
<path d="M0 75.84C0 77.06 0.99 78.04 2.2 78.04C3.41 78.04 4.4 77.05 4.4 75.84C4.4 74.63 3.41 73.64 2.2 73.64C0.99 73.64 0 74.63 0 75.84Z" fill="#2FC3C7"/>
<path d="M0 61.11C0 62.33 0.99 63.31 2.2 63.31C3.41 63.31 4.4 62.32 4.4 61.11C4.4 59.9 3.41 58.91 2.2 58.91C0.99 58.91 0 59.9 0 61.11Z" fill="#2FC3C7"/>
<path d="M0 46.3801C0 47.6001 0.99 48.5801 2.2 48.5801C3.41 48.5801 4.4 47.5901 4.4 46.3801C4.4 45.1701 3.41 44.1801 2.2 44.1801C0.99 44.1801 0 45.1701 0 46.3801Z" fill="#2FC3C7"/>
<path d="M0 31.66C0 32.88 0.99 33.86 2.2 33.86C3.41 33.86 4.4 32.87 4.4 31.66C4.4 30.45 3.41 29.46 2.2 29.46C0.99 29.46 0 30.45 0 31.66Z" fill="#2FC3C7"/>
<path d="M0 16.93C0 18.15 0.99 19.13 2.2 19.13C3.41 19.13 4.4 18.14 4.4 16.93C4.4 15.72 3.41 14.73 2.2 14.73C0.99 14.73 0 15.72 0 16.93Z" fill="#2FC3C7"/>
<path d="M0 2.2C0 3.42 0.99 4.4 2.2 4.4C3.41 4.4 4.4 3.41 4.4 2.2C4.4 0.99 3.42 0 2.2 0C0.98 0 0 0.99 0 2.2Z" fill="#2FC3C7"/>
</g>
<defs>
<clipPath id="clip0_548_3119">
<rect width="63.81" height="78.04" fill="white"/>
</clipPath>
</defs>
</svg>
