<svg width="302" height="651" viewBox="0 0 302 651" fill="none" xmlns="http://www.w3.org/2000/svg">
<g opacity="0.15" filter="url(#filter0_f_339_258)">
<path d="M519.646 497.088C516.269 493.72 514.363 489.122 514.363 484.345V337.771C514.044 338.885 513.826 340.038 513.737 341.242C505.755 439.982 421.922 517.323 322.92 517.323C308.325 517.323 293.845 515.671 279.865 512.443C271.384 510.458 262.61 514.915 259.194 522.996L231.003 589.835C228.969 594.612 229.11 600.016 231.387 604.691C233.625 609.365 237.782 612.836 242.745 614.245C268.673 621.455 295.636 625.13 322.92 625.13C411.549 625.13 491.736 586.223 546.699 524.2L519.633 497.075L519.646 497.088Z" fill="#9474CB"/>
<path d="M44.0997 307.598H116.561C125.323 307.598 132.819 301.285 134.328 292.627C139.125 264.683 149.895 238.736 166.293 215.505C171.333 208.333 170.501 198.548 164.297 192.337L113.095 141.084C109.462 137.422 104.435 135.539 99.2292 135.833C94.0616 136.154 89.2778 138.702 86.1312 142.788C53.6291 184.755 32.9203 234.702 26.2306 287.261C25.5527 292.409 27.1515 297.571 30.5668 301.477C33.982 305.357 38.9193 307.598 44.0997 307.598Z" fill="#4CA8C8"/>
<path d="M219.197 486.727C174.377 457.822 143.448 411.129 134.315 358.634C132.819 349.989 125.323 343.688 116.561 343.688H44.0999C38.9196 343.688 34.0206 345.916 30.567 349.81C27.1518 353.703 25.5657 358.877 26.2308 364.025C37.973 455.427 92.5141 537.762 172.151 584.289C174.927 585.916 178.074 586.761 181.233 586.761C183.152 586.761 185.07 586.454 186.925 585.839C191.85 584.2 195.802 580.511 197.836 575.747L226.027 508.934C229.417 500.853 226.539 491.491 219.184 486.74" fill="#6E8DC9"/>
<path d="M322.932 26.1432C256.073 26.1432 192.924 47.7355 140.301 88.5508C136.208 91.7397 133.688 96.5038 133.343 101.678C133.023 106.839 134.942 111.91 138.6 115.573L189.79 166.826C195.994 173.05 205.779 173.883 212.929 168.824C245.15 146.028 283.178 133.976 322.945 133.976C373.994 133.976 422.05 153.942 458.262 190.186C494.461 226.429 514.389 274.518 514.389 325.643V484.332C514.389 489.122 516.282 493.707 519.659 497.088L546.738 524.226L591.302 568.844C594.755 572.302 599.373 574.134 604.067 574.134C606.382 574.134 608.723 573.685 610.962 572.763C617.677 569.971 622.077 563.389 622.077 556.089V325.656C622.077 160.512 487.873 26.1432 322.932 26.1432Z" fill="#2FC3C7"/>
</g>
<defs>
<filter id="filter0_f_339_258" x="-19.3" y="-10.3" width="686.6" height="671.6" filterUnits="userSpaceOnUse" color-interpolation-filters="sRGB">
<feFlood flood-opacity="0" result="BackgroundImageFix"/>
<feBlend mode="normal" in="SourceGraphic" in2="BackgroundImageFix" result="shape"/>
<feGaussianBlur stdDeviation="12.65" result="effect1_foregroundBlur_339_258"/>
</filter>
</defs>
</svg>
