<svg width="35" height="31" viewBox="0 0 35 31" fill="none" xmlns="http://www.w3.org/2000/svg">
<rect width="34.94" height="30.584" rx="15.292" fill="#2FC3C7" fill-opacity="0.5"/>
<path d="M10 17.308C10 16.756 10.144 16.216 10.432 15.688V15.652L13.744 10C14.414 10 14.8314 10.727 14.4934 11.3056L12.88 14.068L13.276 14.032C14.164 14.032 14.92 14.356 15.544 15.004C16.192 15.628 16.516 16.396 16.516 17.308C16.516 18.22 16.192 19 15.544 19.648C14.92 20.272 14.164 20.584 13.276 20.584C12.364 20.584 11.584 20.272 10.936 19.648C10.312 19 10 18.22 10 17.308ZM21.664 14.032C22.576 14.032 23.344 14.356 23.968 15.004C24.616 15.628 24.94 16.396 24.94 17.308C24.94 18.196 24.616 18.964 23.968 19.612C23.344 20.26 22.576 20.584 21.664 20.584C20.776 20.584 20.008 20.26 19.36 19.612C18.712 18.964 18.388 18.196 18.388 17.308C18.388 16.732 18.544 16.192 18.856 15.688V15.652L22.132 10C22.818 10 23.2453 10.7443 22.8993 11.3367L21.304 14.068L21.664 14.032Z" fill="white"/>
</svg>
