<svg width="269" height="27" viewBox="0 0 269 27" fill="none" xmlns="http://www.w3.org/2000/svg">
<path d="M0.24 13.0586V0.318607H3.852V13.0586C3.852 15.7186 5.588 17.2306 8.248 17.2306C10.908 17.2306 12.672 15.7186 12.672 13.0306V0.318607H16.284V13.0586C16.284 17.5106 13.064 20.5346 8.276 20.5346C3.46 20.5346 0.24 17.5106 0.24 13.0586ZM20.4131 25.7986V5.91861H23.6611V6.95461C23.6611 7.48661 23.6051 7.93461 23.6051 7.93461H23.6611C23.6611 7.93461 24.8931 5.58261 28.2531 5.58261C32.1171 5.58261 34.5811 8.63461 34.5811 13.0586C34.5811 17.5946 31.8091 20.5346 28.0571 20.5346C25.2291 20.5346 23.9691 18.5746 23.9691 18.5746H23.9131C23.9131 18.5746 23.9691 19.0786 23.9691 19.8066V25.7986H20.4131ZM23.8571 13.1426C23.8571 15.3546 25.0611 17.5386 27.4131 17.5386C29.3731 17.5386 30.9971 15.9426 30.9971 13.1146C30.9971 10.3986 29.5411 8.63461 27.4411 8.63461C25.5931 8.63461 23.8571 9.97861 23.8571 13.1426ZM36.4943 13.0586C36.4943 8.99861 39.5183 5.58261 44.2503 5.58261C47.9743 5.58261 49.7383 7.71061 49.7383 7.71061L48.1703 10.1466C48.1703 10.1466 46.6863 8.60661 44.4463 8.60661C41.8143 8.60661 40.1063 10.5946 40.1063 13.0306C40.1063 15.4386 41.8423 17.5106 44.5583 17.5106C46.9663 17.5106 48.7583 15.6906 48.7583 15.6906L50.1303 18.2106C50.1303 18.2106 48.0863 20.5346 44.2503 20.5346C39.5183 20.5346 36.4943 17.2026 36.4943 13.0586ZM51.7241 13.0586C51.7241 8.69061 55.2241 5.58261 59.5641 5.58261C63.9321 5.58261 67.4321 8.69061 67.4321 13.0586C67.4321 17.4546 63.9321 20.5346 59.5921 20.5346C55.2241 20.5346 51.7241 17.4546 51.7241 13.0586ZM55.3361 13.0586C55.3361 15.7186 57.2681 17.5106 59.5921 17.5106C61.8881 17.5106 63.8201 15.7186 63.8201 13.0586C63.8201 10.4266 61.8881 8.60661 59.5921 8.60661C57.2681 8.60661 55.3361 10.4266 55.3361 13.0586ZM70.2881 20.1986V5.91861H73.7041V7.57061C73.7041 8.10261 73.6481 8.55061 73.6481 8.55061H73.7041C74.4041 7.15061 76.1121 5.58261 78.3521 5.58261C80.5361 5.58261 81.9361 6.59061 82.5241 8.52261H82.5801C83.3641 6.98261 85.2121 5.58261 87.4521 5.58261C90.4201 5.58261 92.1281 7.26261 92.1281 11.0146V20.1986H88.5721V11.6866C88.5721 10.0626 88.2641 8.83061 86.6121 8.83061C84.7921 8.83061 83.5881 10.2866 83.1681 12.0786C83.0281 12.6386 83.0001 13.2546 83.0001 13.9266V20.1986H79.4441V11.6866C79.4441 10.1466 79.1921 8.83061 77.5121 8.83061C75.6641 8.83061 74.4601 10.2866 74.0121 12.1066C73.8721 12.6386 73.8441 13.2826 73.8441 13.9266V20.1986H70.2881ZM95.8545 3.48261V0.318607H99.3825V3.48261H95.8545ZM95.8545 20.1986V5.91861H99.4105V20.1986H95.8545ZM103.319 20.1986V5.91861H106.735V7.57061C106.735 8.10261 106.679 8.55061 106.679 8.55061H106.735C107.351 7.34661 108.919 5.58261 111.803 5.58261C114.967 5.58261 116.759 7.23461 116.759 11.0146V20.1986H113.231V11.7426C113.231 10.0066 112.783 8.83061 110.963 8.83061C109.059 8.83061 107.659 10.0346 107.127 11.7426C106.931 12.3306 106.875 12.9746 106.875 13.6466V20.1986H103.319ZM121.947 22.1306C121.947 22.1306 123.739 23.0546 125.895 23.0546C128.079 23.0546 129.927 22.1306 129.927 19.5826V18.7426C129.927 18.4066 129.983 17.9866 129.983 17.9866H129.927C129.087 19.2466 127.855 19.9186 125.951 19.9186C121.863 19.9186 119.539 16.6146 119.539 12.6946C119.539 8.77461 121.751 5.58261 125.867 5.58261C128.975 5.58261 130.095 7.40261 130.095 7.40261H130.179C130.179 7.40261 130.151 7.23461 130.151 7.01061V5.91861H133.483V19.3306C133.483 24.2306 129.675 26.0786 125.951 26.0786C124.159 26.0786 122.255 25.5746 120.883 24.8466L121.947 22.1306ZM126.707 16.9226C128.415 16.9226 130.011 15.9426 130.011 12.7226C130.011 9.47461 128.415 8.60661 126.483 8.60661C124.327 8.60661 123.123 10.1746 123.123 12.5826C123.123 15.0746 124.411 16.9226 126.707 16.9226ZM144.758 20.1986V0.318607H148.37V20.1986H144.758ZM152.839 20.1986V5.91861H156.255V7.57061C156.255 8.10261 156.199 8.55061 156.199 8.55061H156.255C156.871 7.34661 158.439 5.58261 161.323 5.58261C164.487 5.58261 166.279 7.23461 166.279 11.0146V20.1986H162.751V11.7426C162.751 10.0066 162.303 8.83061 160.483 8.83061C158.579 8.83061 157.179 10.0346 156.647 11.7426C156.451 12.3306 156.395 12.9746 156.395 13.6466V20.1986H152.839ZM170.011 3.48261V0.318607H173.539V3.48261H170.011ZM170.011 20.1986V5.91861H173.567V20.1986H170.011ZM178.092 14.9626V8.97061H176.244V6.14261H178.176V2.02661H181.648V6.14261H184.896V8.97061H181.648V14.5146C181.648 16.8666 183.496 17.2026 184.476 17.2026C184.868 17.2026 185.12 17.1466 185.12 17.1466V20.2546C185.12 20.2546 184.7 20.3386 184.028 20.3386C182.04 20.3386 178.092 19.7506 178.092 14.9626ZM188.03 3.48261V0.318607H191.558V3.48261H188.03ZM188.03 20.1986V5.91861H191.586V20.1986H188.03ZM194.291 16.0826C194.291 11.5466 200.423 11.2386 202.747 11.2386H203.223V11.0426C203.223 9.16661 202.047 8.52261 200.479 8.52261C198.435 8.52261 196.559 9.89461 196.559 9.89461L195.215 7.34661C195.215 7.34661 197.427 5.58261 200.815 5.58261C204.567 5.58261 206.751 7.65461 206.751 11.2666V20.1986H203.475V19.0226C203.475 18.4626 203.531 18.0146 203.531 18.0146H203.475C203.503 18.0146 202.383 20.5346 199.135 20.5346C196.587 20.5346 194.291 18.9386 194.291 16.0826ZM197.875 15.9146C197.875 16.8666 198.575 17.7626 200.031 17.7626C201.907 17.7626 203.251 15.7466 203.251 14.0106V13.6746H202.635C200.815 13.6746 197.875 13.9266 197.875 15.9146ZM210.986 14.9626V8.97061H209.138V6.14261H211.07V2.02661H214.542V6.14261H217.79V8.97061H214.542V14.5146C214.542 16.8666 216.39 17.2026 217.37 17.2026C217.762 17.2026 218.014 17.1466 218.014 17.1466V20.2546C218.014 20.2546 217.594 20.3386 216.922 20.3386C214.934 20.3386 210.986 19.7506 210.986 14.9626ZM220.925 3.48261V0.318607H224.453V3.48261H220.925ZM220.925 20.1986V5.91861H224.481V20.1986H220.925ZM231.61 20.1986L226.43 5.91861H230.182L233.15 14.7666C233.43 15.6066 233.626 16.9226 233.654 16.9226H233.71C233.738 16.9226 233.934 15.6066 234.214 14.7666L237.182 5.91861H240.934L235.81 20.1986H231.61ZM241.901 13.0586C241.901 8.66261 244.897 5.58261 249.153 5.58261C253.269 5.58261 255.481 8.57861 255.481 12.3586C255.481 12.7786 255.397 13.7306 255.397 13.7306H245.541C245.765 16.2226 247.697 17.5106 249.825 17.5106C252.121 17.5106 253.941 15.9426 253.941 15.9426L255.313 18.4906C255.313 18.4906 253.129 20.5346 249.573 20.5346C244.841 20.5346 241.901 17.1186 241.901 13.0586ZM245.653 11.2946H251.897C251.841 9.36261 250.637 8.32661 249.069 8.32661C247.249 8.32661 245.989 9.44661 245.653 11.2946ZM257.209 18.4346L258.833 15.9426C258.833 15.9426 260.401 17.5106 262.725 17.5106C263.733 17.5106 264.601 17.0626 264.601 16.2226C264.601 14.0946 257.657 14.3746 257.657 9.78261C257.657 7.12261 260.037 5.58261 263.117 5.58261C266.337 5.58261 267.905 7.20661 267.905 7.20661L266.589 9.83861C266.589 9.83861 265.273 8.60661 263.089 8.60661C262.165 8.60661 261.269 8.99861 261.269 9.89461C261.269 11.9106 268.213 11.6586 268.213 16.2506C268.213 18.6306 266.141 20.5346 262.753 20.5346C259.197 20.5346 257.209 18.4346 257.209 18.4346Z" fill="#676767"/>
<path d="M0.24 13.0586V0.318607H3.852V13.0586C3.852 15.7186 5.588 17.2306 8.248 17.2306C10.908 17.2306 12.672 15.7186 12.672 13.0306V0.318607H16.284V13.0586C16.284 17.5106 13.064 20.5346 8.276 20.5346C3.46 20.5346 0.24 17.5106 0.24 13.0586ZM20.4131 25.7986V5.91861H23.6611V6.95461C23.6611 7.48661 23.6051 7.93461 23.6051 7.93461H23.6611C23.6611 7.93461 24.8931 5.58261 28.2531 5.58261C32.1171 5.58261 34.5811 8.63461 34.5811 13.0586C34.5811 17.5946 31.8091 20.5346 28.0571 20.5346C25.2291 20.5346 23.9691 18.5746 23.9691 18.5746H23.9131C23.9131 18.5746 23.9691 19.0786 23.9691 19.8066V25.7986H20.4131ZM23.8571 13.1426C23.8571 15.3546 25.0611 17.5386 27.4131 17.5386C29.3731 17.5386 30.9971 15.9426 30.9971 13.1146C30.9971 10.3986 29.5411 8.63461 27.4411 8.63461C25.5931 8.63461 23.8571 9.97861 23.8571 13.1426ZM36.4943 13.0586C36.4943 8.99861 39.5183 5.58261 44.2503 5.58261C47.9743 5.58261 49.7383 7.71061 49.7383 7.71061L48.1703 10.1466C48.1703 10.1466 46.6863 8.60661 44.4463 8.60661C41.8143 8.60661 40.1063 10.5946 40.1063 13.0306C40.1063 15.4386 41.8423 17.5106 44.5583 17.5106C46.9663 17.5106 48.7583 15.6906 48.7583 15.6906L50.1303 18.2106C50.1303 18.2106 48.0863 20.5346 44.2503 20.5346C39.5183 20.5346 36.4943 17.2026 36.4943 13.0586ZM51.7241 13.0586C51.7241 8.69061 55.2241 5.58261 59.5641 5.58261C63.9321 5.58261 67.4321 8.69061 67.4321 13.0586C67.4321 17.4546 63.9321 20.5346 59.5921 20.5346C55.2241 20.5346 51.7241 17.4546 51.7241 13.0586ZM55.3361 13.0586C55.3361 15.7186 57.2681 17.5106 59.5921 17.5106C61.8881 17.5106 63.8201 15.7186 63.8201 13.0586C63.8201 10.4266 61.8881 8.60661 59.5921 8.60661C57.2681 8.60661 55.3361 10.4266 55.3361 13.0586ZM70.2881 20.1986V5.91861H73.7041V7.57061C73.7041 8.10261 73.6481 8.55061 73.6481 8.55061H73.7041C74.4041 7.15061 76.1121 5.58261 78.3521 5.58261C80.5361 5.58261 81.9361 6.59061 82.5241 8.52261H82.5801C83.3641 6.98261 85.2121 5.58261 87.4521 5.58261C90.4201 5.58261 92.1281 7.26261 92.1281 11.0146V20.1986H88.5721V11.6866C88.5721 10.0626 88.2641 8.83061 86.6121 8.83061C84.7921 8.83061 83.5881 10.2866 83.1681 12.0786C83.0281 12.6386 83.0001 13.2546 83.0001 13.9266V20.1986H79.4441V11.6866C79.4441 10.1466 79.1921 8.83061 77.5121 8.83061C75.6641 8.83061 74.4601 10.2866 74.0121 12.1066C73.8721 12.6386 73.8441 13.2826 73.8441 13.9266V20.1986H70.2881ZM95.8545 3.48261V0.318607H99.3825V3.48261H95.8545ZM95.8545 20.1986V5.91861H99.4105V20.1986H95.8545ZM103.319 20.1986V5.91861H106.735V7.57061C106.735 8.10261 106.679 8.55061 106.679 8.55061H106.735C107.351 7.34661 108.919 5.58261 111.803 5.58261C114.967 5.58261 116.759 7.23461 116.759 11.0146V20.1986H113.231V11.7426C113.231 10.0066 112.783 8.83061 110.963 8.83061C109.059 8.83061 107.659 10.0346 107.127 11.7426C106.931 12.3306 106.875 12.9746 106.875 13.6466V20.1986H103.319ZM121.947 22.1306C121.947 22.1306 123.739 23.0546 125.895 23.0546C128.079 23.0546 129.927 22.1306 129.927 19.5826V18.7426C129.927 18.4066 129.983 17.9866 129.983 17.9866H129.927C129.087 19.2466 127.855 19.9186 125.951 19.9186C121.863 19.9186 119.539 16.6146 119.539 12.6946C119.539 8.77461 121.751 5.58261 125.867 5.58261C128.975 5.58261 130.095 7.40261 130.095 7.40261H130.179C130.179 7.40261 130.151 7.23461 130.151 7.01061V5.91861H133.483V19.3306C133.483 24.2306 129.675 26.0786 125.951 26.0786C124.159 26.0786 122.255 25.5746 120.883 24.8466L121.947 22.1306ZM126.707 16.9226C128.415 16.9226 130.011 15.9426 130.011 12.7226C130.011 9.47461 128.415 8.60661 126.483 8.60661C124.327 8.60661 123.123 10.1746 123.123 12.5826C123.123 15.0746 124.411 16.9226 126.707 16.9226ZM144.758 20.1986V0.318607H148.37V20.1986H144.758ZM152.839 20.1986V5.91861H156.255V7.57061C156.255 8.10261 156.199 8.55061 156.199 8.55061H156.255C156.871 7.34661 158.439 5.58261 161.323 5.58261C164.487 5.58261 166.279 7.23461 166.279 11.0146V20.1986H162.751V11.7426C162.751 10.0066 162.303 8.83061 160.483 8.83061C158.579 8.83061 157.179 10.0346 156.647 11.7426C156.451 12.3306 156.395 12.9746 156.395 13.6466V20.1986H152.839ZM170.011 3.48261V0.318607H173.539V3.48261H170.011ZM170.011 20.1986V5.91861H173.567V20.1986H170.011ZM178.092 14.9626V8.97061H176.244V6.14261H178.176V2.02661H181.648V6.14261H184.896V8.97061H181.648V14.5146C181.648 16.8666 183.496 17.2026 184.476 17.2026C184.868 17.2026 185.12 17.1466 185.12 17.1466V20.2546C185.12 20.2546 184.7 20.3386 184.028 20.3386C182.04 20.3386 178.092 19.7506 178.092 14.9626ZM188.03 3.48261V0.318607H191.558V3.48261H188.03ZM188.03 20.1986V5.91861H191.586V20.1986H188.03ZM194.291 16.0826C194.291 11.5466 200.423 11.2386 202.747 11.2386H203.223V11.0426C203.223 9.16661 202.047 8.52261 200.479 8.52261C198.435 8.52261 196.559 9.89461 196.559 9.89461L195.215 7.34661C195.215 7.34661 197.427 5.58261 200.815 5.58261C204.567 5.58261 206.751 7.65461 206.751 11.2666V20.1986H203.475V19.0226C203.475 18.4626 203.531 18.0146 203.531 18.0146H203.475C203.503 18.0146 202.383 20.5346 199.135 20.5346C196.587 20.5346 194.291 18.9386 194.291 16.0826ZM197.875 15.9146C197.875 16.8666 198.575 17.7626 200.031 17.7626C201.907 17.7626 203.251 15.7466 203.251 14.0106V13.6746H202.635C200.815 13.6746 197.875 13.9266 197.875 15.9146ZM210.986 14.9626V8.97061H209.138V6.14261H211.07V2.02661H214.542V6.14261H217.79V8.97061H214.542V14.5146C214.542 16.8666 216.39 17.2026 217.37 17.2026C217.762 17.2026 218.014 17.1466 218.014 17.1466V20.2546C218.014 20.2546 217.594 20.3386 216.922 20.3386C214.934 20.3386 210.986 19.7506 210.986 14.9626ZM220.925 3.48261V0.318607H224.453V3.48261H220.925ZM220.925 20.1986V5.91861H224.481V20.1986H220.925ZM231.61 20.1986L226.43 5.91861H230.182L233.15 14.7666C233.43 15.6066 233.626 16.9226 233.654 16.9226H233.71C233.738 16.9226 233.934 15.6066 234.214 14.7666L237.182 5.91861H240.934L235.81 20.1986H231.61ZM241.901 13.0586C241.901 8.66261 244.897 5.58261 249.153 5.58261C253.269 5.58261 255.481 8.57861 255.481 12.3586C255.481 12.7786 255.397 13.7306 255.397 13.7306H245.541C245.765 16.2226 247.697 17.5106 249.825 17.5106C252.121 17.5106 253.941 15.9426 253.941 15.9426L255.313 18.4906C255.313 18.4906 253.129 20.5346 249.573 20.5346C244.841 20.5346 241.901 17.1186 241.901 13.0586ZM245.653 11.2946H251.897C251.841 9.36261 250.637 8.32661 249.069 8.32661C247.249 8.32661 245.989 9.44661 245.653 11.2946ZM257.209 18.4346L258.833 15.9426C258.833 15.9426 260.401 17.5106 262.725 17.5106C263.733 17.5106 264.601 17.0626 264.601 16.2226C264.601 14.0946 257.657 14.3746 257.657 9.78261C257.657 7.12261 260.037 5.58261 263.117 5.58261C266.337 5.58261 267.905 7.20661 267.905 7.20661L266.589 9.83861C266.589 9.83861 265.273 8.60661 263.089 8.60661C262.165 8.60661 261.269 8.99861 261.269 9.89461C261.269 11.9106 268.213 11.6586 268.213 16.2506C268.213 18.6306 266.141 20.5346 262.753 20.5346C259.197 20.5346 257.209 18.4346 257.209 18.4346Z" fill="url(#paint0_linear_339_331)"/>
<defs>
<linearGradient id="paint0_linear_339_331" x1="-2" y1="10.1986" x2="273.5" y2="10.1986" gradientUnits="userSpaceOnUse">
<stop stop-color="#39BBC7"/>
<stop offset="1" stop-color="#9473CC"/>
</linearGradient>
</defs>
</svg>
